<mxfile host="app.diagrams.net" agent="Mozilla/5.0 (Windows NT 10.0; Win64; x64) AppleWebKit/537.36 (KHTML, like Gecko) Chrome/128.0.0.0 Safari/537.36" version="24.7.10">
  <diagram id="R2lEEEUBdFMjLlhIrx00" name="Page-1">
    <mxGraphModel dx="1313" dy="653" grid="1" gridSize="10" guides="1" tooltips="1" connect="1" arrows="1" fold="1" page="1" pageScale="1" pageWidth="850" pageHeight="1100" background="none" math="0" shadow="0" extFonts="Permanent Marker^https://fonts.googleapis.com/css?family=Permanent+Marker">
      <root>
        <mxCell id="0" />
        <mxCell id="1" parent="0" />
        <mxCell id="tOP477P7LH4cQaee4SS8-3" style="rounded=0;orthogonalLoop=1;jettySize=auto;html=1;entryX=0.5;entryY=0;entryDx=0;entryDy=0;endArrow=none;endFill=0;startArrow=classic;startFill=1;" edge="1" parent="1" source="tOP477P7LH4cQaee4SS8-1" target="tOP477P7LH4cQaee4SS8-2">
          <mxGeometry relative="1" as="geometry" />
        </mxCell>
        <mxCell id="tOP477P7LH4cQaee4SS8-6" style="rounded=0;orthogonalLoop=1;jettySize=auto;html=1;entryX=0.5;entryY=0;entryDx=0;entryDy=0;endArrow=none;endFill=0;startArrow=classic;startFill=1;" edge="1" parent="1" source="tOP477P7LH4cQaee4SS8-1" target="tOP477P7LH4cQaee4SS8-5">
          <mxGeometry relative="1" as="geometry" />
        </mxCell>
        <mxCell id="tOP477P7LH4cQaee4SS8-8" style="rounded=0;orthogonalLoop=1;jettySize=auto;html=1;endArrow=none;endFill=0;startArrow=classic;startFill=1;" edge="1" parent="1" source="tOP477P7LH4cQaee4SS8-1" target="tOP477P7LH4cQaee4SS8-7">
          <mxGeometry relative="1" as="geometry" />
        </mxCell>
        <mxCell id="tOP477P7LH4cQaee4SS8-34" style="edgeStyle=orthogonalEdgeStyle;rounded=0;orthogonalLoop=1;jettySize=auto;html=1;" edge="1" parent="1" source="tOP477P7LH4cQaee4SS8-1" target="tOP477P7LH4cQaee4SS8-31">
          <mxGeometry relative="1" as="geometry" />
        </mxCell>
        <mxCell id="tOP477P7LH4cQaee4SS8-1" value="Mahasiswa" style="whiteSpace=wrap;html=1;align=center;" vertex="1" parent="1">
          <mxGeometry x="130" y="200" width="120" height="40" as="geometry" />
        </mxCell>
        <mxCell id="tOP477P7LH4cQaee4SS8-2" value="&lt;u&gt;Nim&lt;/u&gt;" style="ellipse;whiteSpace=wrap;html=1;align=center;" vertex="1" parent="1">
          <mxGeometry x="170" y="300" width="100" height="40" as="geometry" />
        </mxCell>
        <mxCell id="tOP477P7LH4cQaee4SS8-5" value="Nm_mhs" style="ellipse;whiteSpace=wrap;html=1;align=center;" vertex="1" parent="1">
          <mxGeometry x="260" y="270" width="100" height="40" as="geometry" />
        </mxCell>
        <mxCell id="tOP477P7LH4cQaee4SS8-7" value="Kontak" style="ellipse;whiteSpace=wrap;html=1;align=center;" vertex="1" parent="1">
          <mxGeometry x="60" y="290" width="100" height="40" as="geometry" />
        </mxCell>
        <mxCell id="tOP477P7LH4cQaee4SS8-19" style="rounded=0;orthogonalLoop=1;jettySize=auto;html=1;endArrow=none;endFill=0;startArrow=classic;startFill=1;" edge="1" target="tOP477P7LH4cQaee4SS8-20" parent="1" source="tOP477P7LH4cQaee4SS8-1">
          <mxGeometry relative="1" as="geometry">
            <mxPoint x="300" y="150" as="sourcePoint" />
          </mxGeometry>
        </mxCell>
        <mxCell id="tOP477P7LH4cQaee4SS8-20" value="Kelas" style="ellipse;whiteSpace=wrap;html=1;align=center;" vertex="1" parent="1">
          <mxGeometry x="20" y="240" width="100" height="40" as="geometry" />
        </mxCell>
        <mxCell id="tOP477P7LH4cQaee4SS8-23" style="rounded=0;orthogonalLoop=1;jettySize=auto;html=1;entryX=0.5;entryY=0;entryDx=0;entryDy=0;endArrow=none;endFill=0;startArrow=classic;startFill=1;" edge="1" source="tOP477P7LH4cQaee4SS8-25" target="tOP477P7LH4cQaee4SS8-27" parent="1">
          <mxGeometry relative="1" as="geometry" />
        </mxCell>
        <mxCell id="tOP477P7LH4cQaee4SS8-24" style="rounded=0;orthogonalLoop=1;jettySize=auto;html=1;endArrow=none;endFill=0;startArrow=classic;startFill=1;" edge="1" source="tOP477P7LH4cQaee4SS8-25" target="tOP477P7LH4cQaee4SS8-28" parent="1">
          <mxGeometry relative="1" as="geometry" />
        </mxCell>
        <mxCell id="tOP477P7LH4cQaee4SS8-36" style="edgeStyle=orthogonalEdgeStyle;rounded=0;orthogonalLoop=1;jettySize=auto;html=1;" edge="1" parent="1" source="tOP477P7LH4cQaee4SS8-25" target="tOP477P7LH4cQaee4SS8-31">
          <mxGeometry relative="1" as="geometry" />
        </mxCell>
        <mxCell id="tOP477P7LH4cQaee4SS8-25" value="Buku" style="whiteSpace=wrap;html=1;align=center;" vertex="1" parent="1">
          <mxGeometry x="560" y="200" width="120" height="40" as="geometry" />
        </mxCell>
        <mxCell id="tOP477P7LH4cQaee4SS8-27" value="pengarang" style="ellipse;whiteSpace=wrap;html=1;align=center;" vertex="1" parent="1">
          <mxGeometry x="550" y="290" width="100" height="40" as="geometry" />
        </mxCell>
        <mxCell id="tOP477P7LH4cQaee4SS8-28" value="jdl_buku" style="ellipse;whiteSpace=wrap;html=1;align=center;" vertex="1" parent="1">
          <mxGeometry x="680" y="290" width="100" height="40" as="geometry" />
        </mxCell>
        <mxCell id="tOP477P7LH4cQaee4SS8-29" style="rounded=0;orthogonalLoop=1;jettySize=auto;html=1;endArrow=none;endFill=0;startArrow=classic;startFill=1;" edge="1" source="tOP477P7LH4cQaee4SS8-25" target="tOP477P7LH4cQaee4SS8-30" parent="1">
          <mxGeometry relative="1" as="geometry">
            <mxPoint x="730" y="150" as="sourcePoint" />
          </mxGeometry>
        </mxCell>
        <mxCell id="tOP477P7LH4cQaee4SS8-30" value="&lt;u&gt;id_buku&lt;/u&gt;" style="ellipse;whiteSpace=wrap;html=1;align=center;" vertex="1" parent="1">
          <mxGeometry x="440" y="290" width="100" height="40" as="geometry" />
        </mxCell>
        <mxCell id="tOP477P7LH4cQaee4SS8-31" value="Peminjaman" style="shape=associativeEntity;whiteSpace=wrap;html=1;align=center;" vertex="1" parent="1">
          <mxGeometry x="330" y="190" width="140" height="60" as="geometry" />
        </mxCell>
      </root>
    </mxGraphModel>
  </diagram>
</mxfile>
